<svg width="169" height="37" viewBox="0 0 169 37" fill="none" xmlns="http://www.w3.org/2000/svg">
<path d="M47.04 11.1C48.12 11.1 49.1067 11.1933 50 11.38C50.8933 11.5533 51.64 11.7533 52.24 11.98C52.8533 12.2067 53.2467 12.3933 53.42 12.54L51.44 16.12C51.1867 15.9333 50.7133 15.6933 50.02 15.4C49.34 15.1067 48.58 14.96 47.74 14.96C47.1 14.96 46.56 15.06 46.12 15.26C45.68 15.4467 45.46 15.7467 45.46 16.16C45.46 16.5733 45.7 16.9067 46.18 17.16C46.6733 17.4 47.38 17.6133 48.3 17.8C49.1 17.96 49.9133 18.2133 50.74 18.56C51.5667 18.9067 52.2533 19.42 52.8 20.1C53.36 20.7667 53.64 21.66 53.64 22.78C53.64 23.9267 53.3933 24.8733 52.9 25.62C52.4067 26.3667 51.7533 26.9467 50.94 27.36C50.1267 27.7733 49.2467 28.06 48.3 28.22C47.3533 28.3933 46.4333 28.48 45.54 28.48C44.2867 28.48 43.1933 28.3667 42.26 28.14C41.34 27.9133 40.5933 27.6533 40.02 27.36C39.4467 27.0667 39.0467 26.8333 38.82 26.66L40.78 22.66C41.1267 22.9533 41.6933 23.2867 42.48 23.66C43.2667 24.02 44.1 24.2 44.98 24.2C45.8333 24.2 46.4933 24.0733 46.96 23.82C47.4267 23.5667 47.66 23.2333 47.66 22.82C47.66 22.4867 47.5467 22.22 47.32 22.02C47.0933 21.82 46.7733 21.6467 46.36 21.5C45.9467 21.3533 45.4467 21.22 44.86 21.1C44.3267 20.9933 43.76 20.8267 43.16 20.6C42.56 20.3733 41.9933 20.0667 41.46 19.68C40.9267 19.28 40.4933 18.78 40.16 18.18C39.8267 17.58 39.66 16.8533 39.66 16C39.66 14.9067 40.0133 14 40.72 13.28C41.4267 12.56 42.34 12.02 43.46 11.66C44.58 11.2867 45.7733 11.1 47.04 11.1ZM63.5475 22.74L67.9875 11.58H73.9475L62.6675 36.32H56.5875L60.3875 28L53.5275 11.58H59.5875L63.5475 22.74ZM85.5534 11.1C86.7001 11.1 87.8201 11.3333 88.9134 11.8C90.0068 12.2667 90.9068 13.0067 91.6134 14.02C92.3201 15.02 92.6734 16.34 92.6734 17.98V28H86.5734V18.98C86.5734 17.8067 86.2934 16.9267 85.7334 16.34C85.1734 15.74 84.4401 15.44 83.5334 15.44C82.9334 15.44 82.3668 15.6 81.8334 15.92C81.3134 16.2267 80.8868 16.6667 80.5534 17.24C80.2334 17.8 80.0734 18.4467 80.0734 19.18V28H73.9934V11.58H80.0734V14C80.2334 13.56 80.5668 13.12 81.0734 12.68C81.5934 12.2267 82.2401 11.8533 83.0134 11.56C83.8001 11.2533 84.6468 11.1 85.5534 11.1ZM103.507 23.7C104.267 23.7 104.893 23.5733 105.387 23.32C105.88 23.0533 106.213 22.84 106.387 22.68L109.167 26.8C108.953 26.9733 108.587 27.2 108.067 27.48C107.547 27.7467 106.893 27.98 106.107 28.18C105.333 28.38 104.447 28.48 103.447 28.48C101.567 28.48 99.9132 28.1267 98.4866 27.42C97.0599 26.7 95.9466 25.6867 95.1466 24.38C94.3599 23.0733 93.9666 21.54 93.9666 19.78C93.9666 18.0067 94.3599 16.4733 95.1466 15.18C95.9466 13.8867 97.0599 12.8867 98.4866 12.18C99.9132 11.46 101.567 11.1 103.447 11.1C104.433 11.1 105.313 11.2067 106.087 11.42C106.873 11.62 107.533 11.8533 108.067 12.12C108.6 12.3733 108.973 12.5933 109.187 12.78L106.347 16.94C106.253 16.8467 106.08 16.7133 105.827 16.54C105.587 16.3667 105.273 16.2133 104.887 16.08C104.5 15.9467 104.04 15.88 103.507 15.88C102.853 15.88 102.24 16.0467 101.667 16.38C101.107 16.7133 100.653 17.1733 100.307 17.76C99.9599 18.3467 99.7866 19.02 99.7866 19.78C99.7866 20.54 99.9599 21.22 100.307 21.82C100.653 22.4067 101.107 22.8667 101.667 23.2C102.24 23.5333 102.853 23.7 103.507 23.7ZM118.398 28.48C116.598 28.48 114.998 28.1133 113.598 27.38C112.211 26.6333 111.118 25.6133 110.318 24.32C109.531 23.0133 109.138 21.52 109.138 19.84C109.138 18.16 109.531 16.6667 110.318 15.36C111.118 14.04 112.211 13 113.598 12.24C114.998 11.48 116.598 11.1 118.398 11.1C120.198 11.1 121.784 11.48 123.158 12.24C124.531 13 125.604 14.04 126.378 15.36C127.151 16.6667 127.538 18.16 127.538 19.84C127.538 21.52 127.151 23.0133 126.378 24.32C125.604 25.6133 124.531 26.6333 123.158 27.38C121.784 28.1133 120.198 28.48 118.398 28.48ZM118.398 23.48C119.091 23.48 119.691 23.3267 120.198 23.02C120.704 22.7133 121.098 22.28 121.378 21.72C121.658 21.16 121.798 20.5267 121.798 19.82C121.798 19.1 121.658 18.46 121.378 17.9C121.098 17.34 120.704 16.9 120.198 16.58C119.691 16.26 119.091 16.1 118.398 16.1C117.704 16.1 117.098 16.26 116.578 16.58C116.071 16.9 115.671 17.34 115.378 17.9C115.098 18.46 114.958 19.1 114.958 19.82C114.958 20.5267 115.098 21.16 115.378 21.72C115.671 22.28 116.071 22.7133 116.578 23.02C117.098 23.3267 117.704 23.48 118.398 23.48ZM136.142 28.48C134.555 28.48 133.175 28.0933 132.002 27.32C130.829 26.5333 129.915 25.4867 129.262 24.18C128.622 22.86 128.302 21.4 128.302 19.8C128.302 18.2 128.622 16.7467 129.262 15.44C129.915 14.12 130.829 13.0667 132.002 12.28C133.175 11.4933 134.555 11.1 136.142 11.1C137.195 11.1 138.129 11.2667 138.942 11.6C139.755 11.92 140.415 12.3067 140.922 12.76C141.429 13.2 141.735 13.6067 141.842 13.98V0.479999H147.922V28H141.902V25.34C141.649 25.8333 141.235 26.3267 140.662 26.82C140.089 27.3 139.415 27.6933 138.642 28C137.869 28.32 137.035 28.48 136.142 28.48ZM138.002 23.7C138.735 23.7 139.389 23.5333 139.962 23.2C140.549 22.8667 141.009 22.4067 141.342 21.82C141.675 21.22 141.842 20.5467 141.842 19.8C141.842 19.0533 141.675 18.3867 141.342 17.8C141.009 17.2 140.549 16.7333 139.962 16.4C139.389 16.0533 138.735 15.88 138.002 15.88C137.295 15.88 136.655 16.0533 136.082 16.4C135.522 16.7333 135.075 17.2 134.742 17.8C134.422 18.3867 134.262 19.0533 134.262 19.8C134.262 20.5467 134.422 21.22 134.742 21.82C135.075 22.4067 135.522 22.8667 136.082 23.2C136.655 23.5333 137.295 23.7 138.002 23.7ZM154.686 21.08C154.726 21.6667 154.912 22.1867 155.246 22.64C155.579 23.0933 156.039 23.4533 156.626 23.72C157.226 23.9733 157.932 24.1 158.746 24.1C159.519 24.1 160.212 24.02 160.826 23.86C161.452 23.7 161.992 23.5 162.446 23.26C162.912 23.02 163.272 22.7733 163.526 22.52L165.886 26.28C165.552 26.64 165.079 26.9933 164.466 27.34C163.866 27.6733 163.072 27.9467 162.086 28.16C161.099 28.3733 159.852 28.48 158.346 28.48C156.532 28.48 154.919 28.14 153.506 27.46C152.092 26.78 150.979 25.78 150.166 24.46C149.352 23.14 148.946 21.5267 148.946 19.62C148.946 18.02 149.292 16.58 149.986 15.3C150.692 14.0067 151.712 12.9867 153.046 12.24C154.379 11.48 155.986 11.1 157.866 11.1C159.652 11.1 161.199 11.4267 162.506 12.08C163.826 12.7333 164.839 13.7067 165.546 15C166.266 16.28 166.626 17.88 166.626 19.8C166.626 19.9067 166.619 20.12 166.606 20.44C166.606 20.76 166.592 20.9733 166.566 21.08H154.686ZM160.906 17.9C160.892 17.4733 160.779 17.0533 160.566 16.64C160.352 16.2133 160.032 15.8667 159.606 15.6C159.179 15.32 158.632 15.18 157.966 15.18C157.299 15.18 156.732 15.3133 156.266 15.58C155.812 15.8333 155.466 16.1667 155.226 16.58C154.986 16.9933 154.852 17.4333 154.826 17.9H160.906Z" fill="white"/>
<path d="M1.83515 10.1722L12.8572 4.84713C13.9641 4.31238 15.2554 4.31626 16.359 4.85765L27.1979 10.1748C27.9389 10.5383 27.9454 11.5923 27.2089 11.9649L16.4026 17.4317C15.2751 18.0021 13.9443 18.0062 12.8132 17.4427L1.82422 11.9677C1.08045 11.5971 1.08692 10.5337 1.83515 10.1722Z" fill="#2684FF"/>
<path d="M2.20416 17.9018L1.82422 18.0911C1.08045 18.4617 1.08692 19.5251 1.83515 19.8866L13.2956 25.4235C14.1258 25.8245 15.0942 25.8216 15.9219 25.4156L27.184 19.8908C27.9276 19.5261 27.9308 18.4673 27.1896 18.098L26.8095 17.9086C25.9593 17.485 24.9588 17.4891 24.1121 17.9196L16.8244 21.6245C15.4375 22.3297 13.7896 22.3409 12.3969 21.6471L4.87981 17.9018C4.03731 17.4821 3.04665 17.4821 2.20416 17.9018Z" fill="#2684FF"/>
<path d="M2.20416 25.843L1.82422 26.0323C1.08045 26.4029 1.08692 27.4663 1.83515 27.8278L13.2956 33.3646C14.1258 33.7657 15.0942 33.7628 15.9219 33.3568L27.184 27.832C27.9276 27.4673 27.9308 26.4085 27.1896 26.0392L26.8095 25.8498C25.9593 25.4262 24.9588 25.4303 24.1121 25.8607L16.8244 29.5657C15.4375 30.2708 13.7896 30.2821 12.3969 29.5882L4.87981 25.843C4.03731 25.4233 3.04665 25.4233 2.20416 25.843Z" fill="#2684FF"/>
<path d="M1.83515 10.1722L12.8572 4.84713C13.9641 4.31238 15.2554 4.31626 16.359 4.85765L27.1979 10.1748C27.9389 10.5383 27.9454 11.5923 27.2089 11.9649L16.4026 17.4317C15.2751 18.0021 13.9443 18.0062 12.8132 17.4427L1.82422 11.9677C1.08045 11.5971 1.08692 10.5337 1.83515 10.1722Z" stroke="#2684FF" stroke-linejoin="round"/>
<path d="M2.20416 17.9018L1.82422 18.0911C1.08045 18.4617 1.08692 19.5251 1.83515 19.8866L13.2956 25.4235C14.1258 25.8245 15.0942 25.8216 15.9219 25.4156L27.184 19.8908C27.9276 19.5261 27.9308 18.4673 27.1896 18.098L26.8095 17.9086C25.9593 17.485 24.9588 17.4891 24.1121 17.9196L16.8244 21.6245C15.4375 22.3297 13.7896 22.3409 12.3969 21.6471L4.87981 17.9018C4.03731 17.4821 3.04665 17.4821 2.20416 17.9018Z" stroke="#2684FF" stroke-linejoin="round"/>
<path d="M2.20416 25.843L1.82422 26.0323C1.08045 26.4029 1.08692 27.4663 1.83515 27.8278L13.2956 33.3646C14.1258 33.7657 15.0942 33.7628 15.9219 33.3568L27.184 27.832C27.9276 27.4673 27.9308 26.4085 27.1896 26.0392L26.8095 25.8498C25.9593 25.4262 24.9588 25.4303 24.1121 25.8607L16.8244 29.5657C15.4375 30.2708 13.7896 30.2821 12.3969 29.5882L4.87981 25.843C4.03731 25.4233 3.04665 25.4233 2.20416 25.843Z" stroke="#2684FF" stroke-linejoin="round"/>
</svg>
