<svg width="171" height="37" viewBox="0 0 171 37" fill="none" xmlns="http://www.w3.org/2000/svg">
<path d="M49.04 11.1C50.12 11.1 51.1067 11.1933 52 11.38C52.8933 11.5533 53.64 11.7533 54.24 11.98C54.8533 12.2067 55.2467 12.3933 55.42 12.54L53.44 16.12C53.1867 15.9333 52.7133 15.6933 52.02 15.4C51.34 15.1067 50.58 14.96 49.74 14.96C49.1 14.96 48.56 15.06 48.12 15.26C47.68 15.4467 47.46 15.7467 47.46 16.16C47.46 16.5733 47.7 16.9067 48.18 17.16C48.6733 17.4 49.38 17.6133 50.3 17.8C51.1 17.96 51.9133 18.2133 52.74 18.56C53.5667 18.9067 54.2533 19.42 54.8 20.1C55.36 20.7667 55.64 21.66 55.64 22.78C55.64 23.9267 55.3933 24.8733 54.9 25.62C54.4067 26.3667 53.7533 26.9467 52.94 27.36C52.1267 27.7733 51.2467 28.06 50.3 28.22C49.3533 28.3933 48.4333 28.48 47.54 28.48C46.2867 28.48 45.1933 28.3667 44.26 28.14C43.34 27.9133 42.5933 27.6533 42.02 27.36C41.4467 27.0667 41.0467 26.8333 40.82 26.66L42.78 22.66C43.1267 22.9533 43.6933 23.2867 44.48 23.66C45.2667 24.02 46.1 24.2 46.98 24.2C47.8333 24.2 48.4933 24.0733 48.96 23.82C49.4267 23.5667 49.66 23.2333 49.66 22.82C49.66 22.4867 49.5467 22.22 49.32 22.02C49.0933 21.82 48.7733 21.6467 48.36 21.5C47.9467 21.3533 47.4467 21.22 46.86 21.1C46.3267 20.9933 45.76 20.8267 45.16 20.6C44.56 20.3733 43.9933 20.0667 43.46 19.68C42.9267 19.28 42.4933 18.78 42.16 18.18C41.8267 17.58 41.66 16.8533 41.66 16C41.66 14.9067 42.0133 14 42.72 13.28C43.4267 12.56 44.34 12.02 45.46 11.66C46.58 11.2867 47.7733 11.1 49.04 11.1ZM65.5475 22.74L69.9875 11.58H75.9475L64.6675 36.32H58.5875L62.3875 28L55.5275 11.58H61.5875L65.5475 22.74ZM87.5534 11.1C88.7001 11.1 89.8201 11.3333 90.9134 11.8C92.0068 12.2667 92.9068 13.0067 93.6134 14.02C94.3201 15.02 94.6734 16.34 94.6734 17.98V28H88.5734V18.98C88.5734 17.8067 88.2934 16.9267 87.7334 16.34C87.1734 15.74 86.4401 15.44 85.5334 15.44C84.9334 15.44 84.3668 15.6 83.8334 15.92C83.3134 16.2267 82.8868 16.6667 82.5534 17.24C82.2334 17.8 82.0734 18.4467 82.0734 19.18V28H75.9934V11.58H82.0734V14C82.2334 13.56 82.5668 13.12 83.0734 12.68C83.5934 12.2267 84.2401 11.8533 85.0134 11.56C85.8001 11.2533 86.6468 11.1 87.5534 11.1ZM105.507 23.7C106.267 23.7 106.893 23.5733 107.387 23.32C107.88 23.0533 108.213 22.84 108.387 22.68L111.167 26.8C110.953 26.9733 110.587 27.2 110.067 27.48C109.547 27.7467 108.893 27.98 108.107 28.18C107.333 28.38 106.447 28.48 105.447 28.48C103.567 28.48 101.913 28.1267 100.487 27.42C99.0599 26.7 97.9466 25.6867 97.1466 24.38C96.3599 23.0733 95.9666 21.54 95.9666 19.78C95.9666 18.0067 96.3599 16.4733 97.1466 15.18C97.9466 13.8867 99.0599 12.8867 100.487 12.18C101.913 11.46 103.567 11.1 105.447 11.1C106.433 11.1 107.313 11.2067 108.087 11.42C108.873 11.62 109.533 11.8533 110.067 12.12C110.6 12.3733 110.973 12.5933 111.187 12.78L108.347 16.94C108.253 16.8467 108.08 16.7133 107.827 16.54C107.587 16.3667 107.273 16.2133 106.887 16.08C106.5 15.9467 106.04 15.88 105.507 15.88C104.853 15.88 104.24 16.0467 103.667 16.38C103.107 16.7133 102.653 17.1733 102.307 17.76C101.96 18.3467 101.787 19.02 101.787 19.78C101.787 20.54 101.96 21.22 102.307 21.82C102.653 22.4067 103.107 22.8667 103.667 23.2C104.24 23.5333 104.853 23.7 105.507 23.7ZM120.398 28.48C118.598 28.48 116.998 28.1133 115.598 27.38C114.211 26.6333 113.118 25.6133 112.318 24.32C111.531 23.0133 111.138 21.52 111.138 19.84C111.138 18.16 111.531 16.6667 112.318 15.36C113.118 14.04 114.211 13 115.598 12.24C116.998 11.48 118.598 11.1 120.398 11.1C122.198 11.1 123.784 11.48 125.158 12.24C126.531 13 127.604 14.04 128.378 15.36C129.151 16.6667 129.538 18.16 129.538 19.84C129.538 21.52 129.151 23.0133 128.378 24.32C127.604 25.6133 126.531 26.6333 125.158 27.38C123.784 28.1133 122.198 28.48 120.398 28.48ZM120.398 23.48C121.091 23.48 121.691 23.3267 122.198 23.02C122.704 22.7133 123.098 22.28 123.378 21.72C123.658 21.16 123.798 20.5267 123.798 19.82C123.798 19.1 123.658 18.46 123.378 17.9C123.098 17.34 122.704 16.9 122.198 16.58C121.691 16.26 121.091 16.1 120.398 16.1C119.704 16.1 119.098 16.26 118.578 16.58C118.071 16.9 117.671 17.34 117.378 17.9C117.098 18.46 116.958 19.1 116.958 19.82C116.958 20.5267 117.098 21.16 117.378 21.72C117.671 22.28 118.071 22.7133 118.578 23.02C119.098 23.3267 119.704 23.48 120.398 23.48ZM138.142 28.48C136.555 28.48 135.175 28.0933 134.002 27.32C132.829 26.5333 131.915 25.4867 131.262 24.18C130.622 22.86 130.302 21.4 130.302 19.8C130.302 18.2 130.622 16.7467 131.262 15.44C131.915 14.12 132.829 13.0667 134.002 12.28C135.175 11.4933 136.555 11.1 138.142 11.1C139.195 11.1 140.129 11.2667 140.942 11.6C141.755 11.92 142.415 12.3067 142.922 12.76C143.429 13.2 143.735 13.6067 143.842 13.98V0.479999H149.922V28H143.902V25.34C143.649 25.8333 143.235 26.3267 142.662 26.82C142.089 27.3 141.415 27.6933 140.642 28C139.869 28.32 139.035 28.48 138.142 28.48ZM140.002 23.7C140.735 23.7 141.389 23.5333 141.962 23.2C142.549 22.8667 143.009 22.4067 143.342 21.82C143.675 21.22 143.842 20.5467 143.842 19.8C143.842 19.0533 143.675 18.3867 143.342 17.8C143.009 17.2 142.549 16.7333 141.962 16.4C141.389 16.0533 140.735 15.88 140.002 15.88C139.295 15.88 138.655 16.0533 138.082 16.4C137.522 16.7333 137.075 17.2 136.742 17.8C136.422 18.3867 136.262 19.0533 136.262 19.8C136.262 20.5467 136.422 21.22 136.742 21.82C137.075 22.4067 137.522 22.8667 138.082 23.2C138.655 23.5333 139.295 23.7 140.002 23.7ZM156.686 21.08C156.726 21.6667 156.912 22.1867 157.246 22.64C157.579 23.0933 158.039 23.4533 158.626 23.72C159.226 23.9733 159.932 24.1 160.746 24.1C161.519 24.1 162.212 24.02 162.826 23.86C163.452 23.7 163.992 23.5 164.446 23.26C164.912 23.02 165.272 22.7733 165.526 22.52L167.886 26.28C167.552 26.64 167.079 26.9933 166.466 27.34C165.866 27.6733 165.072 27.9467 164.086 28.16C163.099 28.3733 161.852 28.48 160.346 28.48C158.532 28.48 156.919 28.14 155.506 27.46C154.092 26.78 152.979 25.78 152.166 24.46C151.352 23.14 150.946 21.5267 150.946 19.62C150.946 18.02 151.292 16.58 151.986 15.3C152.692 14.0067 153.712 12.9867 155.046 12.24C156.379 11.48 157.986 11.1 159.866 11.1C161.652 11.1 163.199 11.4267 164.506 12.08C165.826 12.7333 166.839 13.7067 167.546 15C168.266 16.28 168.626 17.88 168.626 19.8C168.626 19.9067 168.619 20.12 168.606 20.44C168.606 20.76 168.592 20.9733 168.566 21.08H156.686ZM162.906 17.9C162.892 17.4733 162.779 17.0533 162.566 16.64C162.352 16.2133 162.032 15.8667 161.606 15.6C161.179 15.32 160.632 15.18 159.966 15.18C159.299 15.18 158.732 15.3133 158.266 15.58C157.812 15.8333 157.466 16.1667 157.226 16.58C156.986 16.9933 156.852 17.4333 156.826 17.9H162.906Z" fill="white"/>
<path d="M1.844 9.11271L14.8783 2.84094C15.9819 2.30988 17.2681 2.31374 18.3686 2.8514L31.1892 9.11529C31.9321 9.47827 31.9386 10.5348 31.2002 10.9068L18.4121 17.35C17.2877 17.9166 15.9622 17.9206 14.8343 17.361L1.83309 10.9096C1.08739 10.5396 1.09386 9.47366 1.844 9.11271Z" fill="#2684FF"/>
<path d="M2.69704 17.6617L1.83309 18.0904C1.0874 18.4604 1.09386 19.5263 1.844 19.8873L15.3152 26.3693C16.1429 26.7676 17.1076 26.7647 17.9329 26.3614L31.1752 19.8915C31.9207 19.5273 31.924 18.4661 31.1807 18.0973L30.3165 17.6684C29.4688 17.2478 28.4722 17.2518 27.6278 17.6793L19.145 21.9745C17.5661 22.774 15.6922 22.7867 14.1069 22L5.36403 17.6617C4.5239 17.2448 3.53716 17.2448 2.69704 17.6617Z" fill="#2684FF"/>
<path d="M2.69704 26.6617L1.83309 27.0904C1.0874 27.4604 1.09386 28.5263 1.844 28.8873L15.3152 35.3693C16.1429 35.7676 17.1076 35.7647 17.9329 35.3614L31.1752 28.8915C31.9207 28.5273 31.924 27.4661 31.1807 27.0973L30.3165 26.6684C29.4688 26.2478 28.4722 26.2518 27.6278 26.6793L19.145 30.9745C17.5661 31.774 15.6922 31.7867 14.1069 31L5.36403 26.6617C4.5239 26.2448 3.53716 26.2448 2.69704 26.6617Z" fill="#2684FF"/>
<path d="M1.844 9.11271L14.8783 2.84094C15.9819 2.30988 17.2681 2.31374 18.3686 2.8514L31.1892 9.11529C31.9321 9.47827 31.9386 10.5348 31.2002 10.9068L18.4121 17.35C17.2877 17.9166 15.9622 17.9206 14.8343 17.361L1.83309 10.9096C1.08739 10.5396 1.09386 9.47366 1.844 9.11271Z" stroke="#2684FF" stroke-linejoin="round"/>
<path d="M2.69704 17.6617L1.83309 18.0904C1.0874 18.4604 1.09386 19.5263 1.844 19.8873L15.3152 26.3693C16.1429 26.7676 17.1076 26.7647 17.9329 26.3614L31.1752 19.8915C31.9207 19.5273 31.924 18.4661 31.1807 18.0973L30.3165 17.6684C29.4688 17.2478 28.4722 17.2518 27.6278 17.6793L19.145 21.9745C17.5661 22.774 15.6922 22.7867 14.1069 22L5.36403 17.6617C4.5239 17.2448 3.53716 17.2448 2.69704 17.6617Z" stroke="#2684FF" stroke-linejoin="round"/>
<path d="M2.69704 26.6617L1.83309 27.0904C1.0874 27.4604 1.09386 28.5263 1.844 28.8873L15.3152 35.3693C16.1429 35.7676 17.1076 35.7647 17.9329 35.3614L31.1752 28.8915C31.9207 28.5273 31.924 27.4661 31.1807 27.0973L30.3165 26.6684C29.4688 26.2478 28.4722 26.2518 27.6278 26.6793L19.145 30.9745C17.5661 31.774 15.6922 31.7867 14.1069 31L5.36403 26.6617C4.5239 26.2448 3.53716 26.2448 2.69704 26.6617Z" stroke="#2684FF" stroke-linejoin="round"/>
</svg>
