<svg width="161" height="34" viewBox="0 0 161 34" fill="none" xmlns="http://www.w3.org/2000/svg">
<path d="M48.1162 10.0748C49.1303 10.0748 50.0567 10.1633 50.8955 10.3404C51.7342 10.5048 52.4353 10.6945 52.9986 10.9096C53.5745 11.1247 53.9439 11.3017 54.1066 11.4408L52.2475 14.8371C52.0097 14.6599 51.5652 14.4323 50.9142 14.154C50.2758 13.8758 49.5622 13.7366 48.7735 13.7366C48.1726 13.7366 47.6656 13.8315 47.2524 14.0212C46.8393 14.1983 46.6327 14.4829 46.6327 14.875C46.6327 15.2671 46.8581 15.5834 47.3088 15.8237C47.7719 16.0513 48.4355 16.2537 49.2993 16.4308C50.0504 16.5826 50.8141 16.8229 51.5903 17.1518C52.3665 17.4807 53.0111 17.9676 53.5244 18.6127C54.0502 19.2452 54.3131 20.0926 54.3131 21.1551C54.3131 22.243 54.0815 23.141 53.6183 23.8493C53.1552 24.5577 52.5417 25.1079 51.778 25.5C51.0144 25.8921 50.1882 26.1641 49.2993 26.3158C48.4104 26.4803 47.5466 26.5625 46.7079 26.5625C45.5311 26.5625 44.5045 26.455 43.6282 26.24C42.7644 26.0249 42.0633 25.7782 41.525 25.5C40.9867 25.2218 40.6112 25.0003 40.3983 24.8359L42.2386 21.0413C42.5641 21.3195 43.0961 21.6358 43.8348 21.99C44.5734 22.3315 45.3558 22.5022 46.1821 22.5022C46.9832 22.5022 47.6029 22.382 48.0411 22.1417C48.4793 21.9014 48.6984 21.5852 48.6984 21.1931C48.6984 20.8769 48.592 20.6239 48.3791 20.4342C48.1663 20.2444 47.8658 20.08 47.4778 19.9408C47.0897 19.8017 46.6203 19.6752 46.0694 19.5614C45.5687 19.4602 45.0366 19.3021 44.4732 19.0871C43.9099 18.872 43.3778 18.5811 42.8771 18.2143C42.3763 17.8348 41.9694 17.3605 41.6565 16.7913C41.3435 16.2221 41.187 15.5327 41.187 14.7232C41.187 13.686 41.5187 12.8259 42.1823 12.1429C42.8458 11.4598 43.7033 10.9475 44.7549 10.606C45.8065 10.2519 46.9269 10.0748 48.1162 10.0748ZM63.6155 21.1172L67.7843 10.5301H73.3803L62.7893 34H57.0806L60.6485 26.1071L54.2075 10.5301H59.8974L63.6155 21.1172ZM84.2774 10.0748C85.354 10.0748 86.4056 10.2961 87.4321 10.7388C88.4588 11.1816 89.3038 11.8836 89.9672 12.8449C90.6308 13.7935 90.9625 15.0458 90.9625 16.6016V26.1071H85.2351V17.5502C85.2351 16.4372 84.9722 15.6023 84.4464 15.0458C83.9206 14.4766 83.2321 14.192 82.3807 14.192C81.8174 14.192 81.2854 14.3438 80.7846 14.6473C80.2963 14.9383 79.8958 15.3557 79.5827 15.8996C79.2823 16.4308 79.1321 17.0443 79.1321 17.74V26.1071H73.4234V10.5301H79.1321V12.8259C79.2823 12.4085 79.5953 11.9911 80.071 11.5737C80.5592 11.1436 81.1664 10.7894 81.8925 10.5112C82.6311 10.2202 83.4261 10.0748 84.2774 10.0748ZM101.134 22.0279C101.848 22.0279 102.436 21.9077 102.9 21.6674C103.362 21.4144 103.675 21.2121 103.839 21.0603L106.449 24.9688C106.248 25.1332 105.904 25.3482 105.416 25.6138C104.928 25.8668 104.314 26.0882 103.576 26.2779C102.849 26.4676 102.017 26.5625 101.078 26.5625C99.3129 26.5625 97.7601 26.2273 96.4206 25.5569C95.0811 24.8739 94.0358 23.9126 93.2846 22.673C92.546 21.4334 92.1767 19.9788 92.1767 18.3092C92.1767 16.6269 92.546 15.1722 93.2846 13.9453C94.0358 12.7184 95.0811 11.7698 96.4206 11.0993C97.7601 10.4163 99.3129 10.0748 101.078 10.0748C102.004 10.0748 102.83 10.176 103.557 10.3783C104.295 10.5681 104.915 10.7894 105.416 11.0424C105.916 11.2827 106.267 11.4914 106.467 11.6685L103.801 15.615C103.713 15.5264 103.55 15.3999 103.313 15.2355C103.087 15.0711 102.793 14.9256 102.43 14.7991C102.067 14.6727 101.635 14.6094 101.134 14.6094C100.52 14.6094 99.9448 14.7675 99.4068 15.0837C98.881 15.3999 98.4547 15.8363 98.1299 16.3929C97.804 16.9494 97.6412 17.5882 97.6412 18.3092C97.6412 19.0301 97.804 19.6752 98.1299 20.2444C98.4547 20.801 98.881 21.2374 99.4068 21.5536C99.9448 21.8698 100.52 22.0279 101.134 22.0279ZM115.116 26.5625C113.426 26.5625 111.924 26.2146 110.609 25.519C109.307 24.8106 108.281 23.843 107.529 22.6161C106.79 21.3765 106.421 19.9598 106.421 18.3661C106.421 16.7723 106.79 15.3557 107.529 14.1161C108.281 12.8638 109.307 11.8772 110.609 11.1563C111.924 10.4353 113.426 10.0748 115.116 10.0748C116.806 10.0748 118.295 10.4353 119.585 11.1563C120.874 11.8772 121.882 12.8638 122.609 14.1161C123.334 15.3557 123.698 16.7723 123.698 18.3661C123.698 19.9598 123.334 21.3765 122.609 22.6161C121.882 23.843 120.874 24.8106 119.585 25.519C118.295 26.2146 116.806 26.5625 115.116 26.5625ZM115.116 21.8192C115.767 21.8192 116.33 21.6738 116.806 21.3828C117.281 21.0919 117.651 20.6808 117.914 20.1496C118.177 19.6183 118.308 19.0175 118.308 18.3471C118.308 17.6641 118.177 17.0569 117.914 16.5257C117.651 15.9944 117.281 15.577 116.806 15.2734C116.33 14.9699 115.767 14.8181 115.116 14.8181C114.464 14.8181 113.895 14.9699 113.407 15.2734C112.931 15.577 112.555 15.9944 112.28 16.5257C112.017 17.0569 111.886 17.6641 111.886 18.3471C111.886 19.0175 112.017 19.6183 112.28 20.1496C112.555 20.6808 112.931 21.0919 113.407 21.3828C113.895 21.6738 114.464 21.8192 115.116 21.8192ZM131.776 26.5625C130.286 26.5625 128.99 26.1957 127.889 25.4621C126.788 24.7157 125.929 23.7229 125.316 22.4833C124.715 21.231 124.415 19.846 124.415 18.3281C124.415 16.8103 124.715 15.4316 125.316 14.192C125.929 12.9397 126.788 11.9405 127.889 11.1942C128.99 10.4479 130.286 10.0748 131.776 10.0748C132.765 10.0748 133.642 10.2329 134.405 10.5491C135.168 10.8527 135.788 11.2195 136.264 11.6496C136.74 12.067 137.028 12.4528 137.128 12.8069V0H142.837V26.1071H137.184V23.5837C136.947 24.0517 136.558 24.5197 136.02 24.9877C135.482 25.4431 134.849 25.8162 134.123 26.1071C133.398 26.4107 132.615 26.5625 131.776 26.5625ZM133.523 22.0279C134.211 22.0279 134.825 21.8698 135.363 21.5536C135.914 21.2374 136.346 20.801 136.659 20.2444C136.971 19.6752 137.128 19.0365 137.128 18.3281C137.128 17.6198 136.971 16.9874 136.659 16.4308C136.346 15.8616 135.914 15.4189 135.363 15.1027C134.825 14.7738 134.211 14.6094 133.523 14.6094C132.859 14.6094 132.258 14.7738 131.72 15.1027C131.194 15.4189 130.774 15.8616 130.462 16.4308C130.161 16.9874 130.011 17.6198 130.011 18.3281C130.011 19.0365 130.161 19.6752 130.462 20.2444C130.774 20.801 131.194 21.2374 131.72 21.5536C132.258 21.8698 132.859 22.0279 133.523 22.0279ZM149.188 19.5424C149.225 20.099 149.4 20.5923 149.713 21.0223C150.026 21.4523 150.458 21.7939 151.009 22.0469C151.572 22.2872 152.235 22.4074 153 22.4074C153.725 22.4074 154.376 22.3315 154.953 22.1797C155.54 22.0279 156.047 21.8382 156.474 21.6105C156.911 21.3828 157.249 21.1488 157.488 20.9085L159.703 24.4754C159.39 24.817 158.946 25.1521 158.37 25.481C157.807 25.7972 157.061 26.0566 156.136 26.2589C155.209 26.4613 154.038 26.5625 152.624 26.5625C150.921 26.5625 149.406 26.24 148.08 25.5949C146.752 24.9498 145.707 24.0011 144.944 22.7489C144.179 21.4967 143.798 19.9662 143.798 18.1574C143.798 16.6395 144.123 15.2734 144.775 14.0592C145.437 12.8323 146.395 11.8646 147.648 11.1563C148.899 10.4353 150.408 10.0748 152.173 10.0748C153.85 10.0748 155.303 10.3847 156.53 11.0045C157.769 11.6242 158.72 12.5477 159.384 13.7746C160.06 14.9888 160.398 16.5067 160.398 18.3281C160.398 18.4293 160.392 18.6317 160.38 18.9353C160.38 19.2388 160.366 19.4412 160.342 19.5424H149.188ZM155.028 16.5257C155.015 16.1209 154.908 15.7224 154.708 15.3304C154.507 14.9256 154.207 14.5968 153.807 14.3438C153.406 14.0781 152.893 13.9453 152.267 13.9453C151.641 13.9453 151.109 14.0718 150.671 14.3248C150.245 14.5651 149.92 14.8814 149.695 15.2734C149.469 15.6655 149.343 16.0829 149.319 16.5257H155.028Z" fill="white"/>
<path d="M14.3874 11.7854C17.1081 17.8882 21.5144 28.796 18.067 31.2191C14.6195 33.6423 5.84428 26.079 2.4799 20.7192C-0.884487 15.3594 -0.817163 9.05004 2.63027 6.6269C6.0777 4.20377 11.9405 6.29689 14.3874 11.7854Z" fill="url(#paint0_linear_529_12)"/>
<path d="M24.2723 13.9186C24.1209 21.0934 20.7616 31.6563 16.6237 31.7408C12.4858 31.8252 8.92308 20.4578 8.80586 14.0245C8.68864 7.5913 11.9481 2.30767 16.086 2.22325C20.2238 2.13883 24.4183 6.99616 24.2723 13.9186Z" fill="url(#paint1_linear_529_12)"/>
<path d="M31.127 21.1986C26.9386 25.8632 18.6971 33.8089 15.3057 31.2987C11.9144 28.7885 15.3607 17.3809 18.8459 12.1083C22.3312 6.83574 27.9058 4.59637 31.2972 7.10659C34.6884 9.61686 35.9676 15.8078 31.127 21.1986Z" fill="url(#paint2_linear_529_12)"/>
<defs>
<linearGradient id="paint0_linear_529_12" x1="2.05182" y1="5.94484" x2="18.5158" y2="29.4418" gradientUnits="userSpaceOnUse">
<stop stop-color="#8C52FF"/>
<stop offset="1" stop-color="#1CDAFF"/>
</linearGradient>
<linearGradient id="paint1_linear_529_12" x1="17.081" y1="0.53014" x2="15.8782" y2="26.5192" gradientUnits="userSpaceOnUse">
<stop stop-color="#004AAD"/>
<stop offset="1" stop-color="#5271FF"/>
</linearGradient>
<linearGradient id="paint2_linear_529_12" x1="32.8241" y1="6.76201" x2="14.5904" y2="27.2481" gradientUnits="userSpaceOnUse">
<stop stop-color="#1CDAFF"/>
<stop offset="1" stop-color="#1CDAFF"/>
</linearGradient>
</defs>
</svg>
