<?xml version="1.0" encoding="utf-8"?>
<!-- Generator: Adobe Illustrator 25.1.0, SVG Export Plug-In . SVG Version: 6.00 Build 0)  -->
<svg version="1.1" id="레이어_1" xmlns="http://www.w3.org/2000/svg" xmlns:xlink="http://www.w3.org/1999/xlink" x="0px"
	 y="0px" viewBox="0 0 27.8 30.5" style="enable-background:new 0 0 27.8 30.5;" xml:space="preserve">
<style type="text/css">
	.st0{fill:#2684FF;}
</style>
<g>
	<path class="st0" d="M27.6,7.2c0,0.6-0.3,1.1-0.8,1.3L16,14c-0.6,0.3-1.3,0.5-2,0.5s-1.4-0.2-2-0.5l-11-5.5
		C0.4,8.3,0.1,7.8,0.1,7.2c0-0.6,0.3-1.1,0.8-1.4l11-5.3c1.2-0.6,2.7-0.6,3.9,0l10.8,5.3C27.3,6.1,27.6,6.7,27.6,7.2z"/>
</g>
<g>
	<path class="st0" d="M27.6,15.2c0,0.6-0.3,1.1-0.8,1.3L15.5,22c-0.5,0.2-1,0.3-1.5,0.3c-0.5,0-1-0.1-1.5-0.3L1,16.5
		c-0.5-0.2-0.8-0.8-0.8-1.3c0-0.6,0.3-1.1,0.8-1.4l0.4-0.2c1-0.5,2.2-0.5,3.1,0l7.5,3.7c1.2,0.6,2.7,0.6,4,0l7.3-3.7
		c1-0.5,2.2-0.5,3.2,0l0.4,0.2C27.3,14.1,27.6,14.6,27.6,15.2z"/>
</g>
<g>
	<path class="st0" d="M27.6,23.1c0,0.6-0.3,1.1-0.8,1.3L15.5,30c-0.5,0.2-1,0.4-1.5,0.4c-0.5,0-1-0.1-1.5-0.4L1,24.4
		c-0.5-0.2-0.8-0.8-0.8-1.3c0-0.6,0.3-1.1,0.8-1.4l0.4-0.2c1-0.5,2.2-0.5,3.1,0l7.5,3.8c1.2,0.6,2.7,0.6,4,0l7.3-3.7
		c1-0.5,2.2-0.5,3.2,0l0.4,0.2C27.3,22,27.6,22.5,27.6,23.1z"/>
</g>
</svg>
