<svg width="35" height="28" viewBox="0 0 35 28" fill="none" xmlns="http://www.w3.org/2000/svg">
<path d="M14.4232 9.0599C17.1507 14.8415 21.568 25.1752 18.112 27.4708C14.6559 29.7664 5.85883 22.6012 2.48607 17.5235C-0.886689 12.4458 -0.819198 6.4685 2.63682 4.17289C6.09283 1.87729 11.9702 3.86025 14.4232 9.0599Z" fill="url(#paint0_linear_529_11)"/>
<path d="M24.3327 11.0808C24.1809 17.878 20.8133 27.885 16.6651 27.965C12.5169 28.045 8.94529 17.2759 8.82778 11.1812C8.71027 5.08655 11.9778 0.0810065 16.126 0.00102647C20.2741 -0.0789535 24.4791 4.52273 24.3327 11.0808Z" fill="url(#paint1_linear_529_11)"/>
<path d="M31.2045 17.9776C27.0057 22.3967 18.7436 29.9242 15.3438 27.5461C11.9441 25.168 15.3989 14.3608 18.8928 9.3657C22.3868 4.37065 27.9753 2.24915 31.3751 4.62725C34.7748 7.0054 36.0571 12.8705 31.2045 17.9776Z" fill="url(#paint2_linear_529_11)"/>
<defs>
<linearGradient id="paint0_linear_529_11" x1="2.05693" y1="3.52673" x2="17.3348" y2="26.5995" gradientUnits="userSpaceOnUse">
<stop stop-color="#8C52FF"/>
<stop offset="1" stop-color="#1CDAFF"/>
</linearGradient>
<linearGradient id="paint1_linear_529_11" x1="17.1235" y1="-1.60297" x2="16.0464" y2="23.0239" gradientUnits="userSpaceOnUse">
<stop stop-color="#004AAD"/>
<stop offset="1" stop-color="#5271FF"/>
</linearGradient>
<linearGradient id="paint2_linear_529_11" x1="32.9058" y1="4.30081" x2="15.7716" y2="24.6717" gradientUnits="userSpaceOnUse">
<stop stop-color="#1CDAFF"/>
<stop offset="1" stop-color="#1CDAFF"/>
</linearGradient>
</defs>
</svg>
