<svg width="46" height="34" viewBox="0 0 46 34" fill="none" xmlns="http://www.w3.org/2000/svg">
<g clip-path="url(#clip0_130_21)">
<path d="M40 9.21687V27.6506C40 29.9036 38.2524 31.5422 36.3107 31.5422H3.68932C0 31.5422 0 32.5407 0 27.6506V3.89157C0 1.84337 1.5534 0 3.68932 0H16.1165L21.165 5.3253H36.1165C38.2524 5.3253 40 6.96386 40 9.21687Z" fill="#36393F"/>
<g filter="url(#filter0_i_130_21)">
<path d="M39.6185 31.3373C38.8545 32.9759 36.7533 34.2048 35.0341 34.2048H1.98807C0.459934 34.2048 -0.495154 32.3614 0.268916 30.9277L6.19046 19.8675C7.14555 18.4337 9.24674 17 10.9659 17H44.0119C45.5401 17 46.4952 18.8434 45.7311 20.2771L39.6185 31.3373Z" fill="#51575E"/>
</g>
</g>
<defs>
<filter id="filter0_i_130_21" x="0" y="17" width="46.2" height="17.3048" filterUnits="userSpaceOnUse" color-interpolation-filters="sRGB">
<feFlood flood-opacity="0" result="BackgroundImageFix"/>
<feBlend mode="normal" in="SourceGraphic" in2="BackgroundImageFix" result="shape"/>
<feColorMatrix in="SourceAlpha" type="matrix" values="0 0 0 0 0 0 0 0 0 0 0 0 0 0 0 0 0 0 127 0" result="hardAlpha"/>
<feOffset dx="0.2" dy="0.1"/>
<feGaussianBlur stdDeviation="0.5"/>
<feComposite in2="hardAlpha" operator="arithmetic" k2="-1" k3="1"/>
<feColorMatrix type="matrix" values="0 0 0 0 1 0 0 0 0 1 0 0 0 0 1 0 0 0 0.3 0"/>
<feBlend mode="normal" in2="shape" result="effect1_innerShadow_130_21"/>
</filter>
<clipPath id="clip0_130_21">
<rect width="46" height="34" fill="white"/>
</clipPath>
</defs>
</svg>
