<svg width="24" height="24" viewBox="0 0 24 24" fill="none" xmlns="http://www.w3.org/2000/svg">
<rect x="2.99994" y="2.99963" width="11" height="11" rx="1" stroke="white" stroke-width="1.5"/>
<path d="M13.0402 14.0399C13.5934 14.0412 14.0426 13.5931 14.0426 13.0399L14.0426 10.9998C14.0426 10.4475 14.4903 9.99976 15.0426 9.99976H20C20.5522 9.99976 21 10.4475 21 10.9998V19.9996C21 20.5519 20.5522 20.9996 20 20.9996H11.0001C10.4478 20.9996 10.0001 20.5519 10.0001 19.9996V15.035C10.0001 14.4818 10.4492 14.0337 11.0024 14.035L13.0402 14.0399Z" stroke="white" stroke-width="1.5"/>
<path d="M6.07898 11.2072L8.12857 6.08355C8.26268 5.74831 8.73724 5.74831 8.87135 6.08355L10.9209 11.2072" stroke="white" stroke-width="1.5" stroke-linecap="round"/>
<path d="M7.06824 9.97925H9.93928" stroke="white" stroke-width="1.5" stroke-linecap="round"/>
<path d="M13.1104 14.0466L18.5792 14.0466" stroke="white" stroke-width="1.5" stroke-linecap="round"/>
<path d="M17.628 14.0706C17.628 15.945 17.2558 18.4441 13.051 18.4441" stroke="white" stroke-width="1.5" stroke-linecap="round"/>
<path d="M17.7695 18.4441C15.2543 18.4441 14.1104 17.4681 13.5973 16.2458" stroke="white" stroke-width="1.5" stroke-linecap="round"/>
<path d="M15.4811 14.0465L15.4811 12.5198" stroke="white" stroke-width="1.5" stroke-linecap="round"/>
</svg>
